<?xml version="1.0" encoding="utf-8" standalone="no"?>
<!DOCTYPE svg PUBLIC "-//W3C//DTD SVG 1.1//EN"
  "http://www.w3.org/Graphics/SVG/1.1/DTD/svg11.dtd">
<svg xmlns:xlink="http://www.w3.org/1999/xlink" width="28.8pt" height="28.8pt" viewBox="0 0 28.8 28.8" xmlns="http://www.w3.org/2000/svg" version="1.1">
 <metadata>
  <rdf:RDF xmlns:dc="http://purl.org/dc/elements/1.1/" xmlns:cc="http://creativecommons.org/ns#" xmlns:rdf="http://www.w3.org/1999/02/22-rdf-syntax-ns#">
   <cc:Work>
    <dc:type rdf:resource="http://purl.org/dc/dcmitype/StillImage"/>
    <dc:description>Fig. 2 input icon: timing</dc:description>
    <dc:format>image/svg+xml</dc:format>
    <dc:creator>
     <cc:Agent>
      <dc:title>Matplotlib v3.9.4, https://matplotlib.org/</dc:title>
     </cc:Agent>
    </dc:creator>
   </cc:Work>
  </rdf:RDF>
 </metadata>
 <defs>
  <style type="text/css">*{stroke-linejoin: round; stroke-linecap: butt}</style>
 </defs>
 <g id="figure_1">
  <g id="patch_1">
   <path d="M 0 28.8 
L 28.8 28.8 
L 28.8 0 
L 0 0 
L 0 28.8 
z
" style="fill: none"/>
  </g>
  <g id="axes_1">
   <g id="patch_2">
    <path d="M 14.4 4.608 
C 16.996869 4.608 19.487726 5.639747 21.32399 7.47601 
C 23.160253 9.312274 24.192 11.803131 24.192 14.4 
C 24.192 16.996869 23.160253 19.487726 21.32399 21.32399 
C 19.487726 23.160253 16.996869 24.192 14.4 24.192 
C 11.803131 24.192 9.312274 23.160253 7.47601 21.32399 
C 5.639747 19.487726 4.608 16.996869 4.608 14.4 
C 4.608 11.803131 5.639747 9.312274 7.47601 7.47601 
C 9.312274 5.639747 11.803131 4.608 14.4 4.608 
z
" clip-path="url(#p121437b373)" style="fill: #ffffff; stroke: #40515d; stroke-width: 1.2; stroke-linejoin: miter"/>
   </g>
   <g id="line2d_1">
    <path d="M 14.4 7.9488 
L 14.4 14.4 
L 19.6992 14.4 
" clip-path="url(#p121437b373)" style="fill: none; stroke: #40515d; stroke-width: 1.2; stroke-linecap: square"/>
   </g>
  </g>
 </g>
 <defs>
  <clipPath id="p121437b373">
   <rect x="0" y="0" width="28.8" height="28.8"/>
  </clipPath>
 </defs>
</svg>
