<svg xmlns="http://www.w3.org/2000/svg" width="900" height="520" viewBox="0 0 900 520">
<rect width="900" height="520" fill="white"/>
<rect x="12" y="55" width="876" height="122" rx="12" fill="#E8F1F4" stroke="none" stroke-width="0"/>
<rect x="12" y="191" width="876" height="174" rx="12" fill="#EDF6E9" stroke="none" stroke-width="0"/>
<rect x="12" y="379" width="876" height="91" rx="12" fill="#F5F7F8" stroke="none" stroke-width="0"/>
<rect x="223" y="13" width="24" height="18" rx="3" fill="#BFD6DF" stroke="#586B74" stroke-width="1.5"/>
<text x="258" y="30" font-family="Arial,Helvetica,sans-serif" font-size="21" font-weight="normal" fill="#202A30" text-anchor="start">Previous reference</text>
<rect x="572" y="13" width="24" height="18" rx="3" fill="#F4EEDC" stroke="#586B74" stroke-width="1.5"/>
<text x="607" y="30" font-family="Arial,Helvetica,sans-serif" font-size="21" font-weight="normal" fill="#202A30" text-anchor="start">New reference</text>
<text x="30" y="93" font-family="Arial,Helvetica,sans-serif" font-size="23" font-weight="bold" fill="#202A30" text-anchor="start">Reference</text>
<text x="30" y="121" font-family="Arial,Helvetica,sans-serif" font-size="23" font-weight="bold" fill="#202A30" text-anchor="start">generation</text>
<text x="30" y="153" font-family="Arial,Helvetica,sans-serif" font-size="21" font-weight="normal" fill="#586B74" text-anchor="start">≈6 Hz</text>
<text x="30" y="243" font-family="Arial,Helvetica,sans-serif" font-size="23" font-weight="bold" fill="#202A30" text-anchor="start">Correction</text>
<text x="30" y="271" font-family="Arial,Helvetica,sans-serif" font-size="23" font-weight="bold" fill="#202A30" text-anchor="start">inference</text>
<text x="30" y="416" font-family="Arial,Helvetica,sans-serif" font-size="22" font-weight="bold" fill="#202A30" text-anchor="start">Robot commands</text>
<text x="30" y="446" font-family="Arial,Helvetica,sans-serif" font-size="21" font-weight="normal" fill="#586B74" text-anchor="start">100 Hz</text>
<text x="611" y="88" font-family="Arial,Helvetica,sans-serif" font-size="21" font-weight="normal" fill="#202A30" text-anchor="middle">Reference ready</text>
<rect x="223" y="111" width="388" height="40" rx="7" fill="#F4EEDC" stroke="#586B74" stroke-width="1.5"/>
<text x="417" y="138" font-family="Arial,Helvetica,sans-serif" font-size="22" font-weight="normal" fill="#202A30" text-anchor="middle">Generate new reference</text>
<polyline points="611,97 611,109" fill="none" stroke="#586B74" stroke-width="1.5" stroke-linejoin="round"/>
<polygon points="611,109 615.0,101.0 607.0,101.0" fill="#586B74"/>
<polyline points="611,151 611,207" fill="none" stroke="#586B74" stroke-width="1.5" stroke-linejoin="round" stroke-dasharray="5 4"/>
<polyline points="611,239 611,288" fill="none" stroke="#586B74" stroke-width="1.5" stroke-linejoin="round" stroke-dasharray="5 4"/>
<text x="545" y="228" font-family="Arial,Helvetica,sans-serif" font-size="21" font-weight="normal" fill="#202A30" text-anchor="middle">Read current state + recent force history</text>
<polyline points="250,239 250,251" fill="none" stroke="#586B74" stroke-width="1.5" stroke-linejoin="round"/>
<polygon points="250,251 254.0,243.0 246.0,243.0" fill="#586B74"/>
<rect x="250" y="254" width="62" height="34" rx="5" fill="#BFD6DF" stroke="#586B74" stroke-width="1.5"/>
<polyline points="410,239 410,251" fill="none" stroke="#586B74" stroke-width="1.5" stroke-linejoin="round"/>
<polygon points="410,251 414.0,243.0 406.0,243.0" fill="#586B74"/>
<rect x="410" y="254" width="62" height="34" rx="5" fill="#BFD6DF" stroke="#586B74" stroke-width="1.5"/>
<polyline points="580,239 580,251" fill="none" stroke="#586B74" stroke-width="1.5" stroke-linejoin="round"/>
<polygon points="580,251 584.0,243.0 576.0,243.0" fill="#586B74"/>
<rect x="580" y="254" width="62" height="34" rx="5" fill="#BFD6DF" stroke="#586B74" stroke-width="1.5"/>
<polyline points="748,239 748,251" fill="none" stroke="#586B74" stroke-width="1.5" stroke-linejoin="round"/>
<polygon points="748,251 752.0,243.0 744.0,243.0" fill="#586B74"/>
<rect x="748" y="254" width="62" height="34" rx="5" fill="#F4EEDC" stroke="#586B74" stroke-width="1.5"/>
<polyline points="611,290 611,302" fill="none" stroke="#586B74" stroke-width="1.5" stroke-linejoin="round"/>
<polygon points="611,302 615.0,294.0 607.0,294.0" fill="#586B74"/>
<text x="598" y="327" font-family="Arial,Helvetica,sans-serif" font-size="21" font-weight="normal" fill="#202A30" text-anchor="middle">Keep previous</text>
<text x="598" y="351" font-family="Arial,Helvetica,sans-serif" font-size="21" font-weight="normal" fill="#202A30" text-anchor="middle">reference</text>
<polyline points="779,290 779,302" fill="none" stroke="#586B74" stroke-width="1.5" stroke-linejoin="round"/>
<polygon points="779,302 783.0,294.0 775.0,294.0" fill="#586B74"/>
<text x="779" y="327" font-family="Arial,Helvetica,sans-serif" font-size="21" font-weight="normal" fill="#202A30" text-anchor="middle">Adopt new</text>
<text x="779" y="351" font-family="Arial,Helvetica,sans-serif" font-size="21" font-weight="normal" fill="#202A30" text-anchor="middle">reference</text>
<rect x="223" y="412" width="18" height="26" rx="2" fill="#BFD6DF" stroke="#586B74" stroke-width="1"/>
<rect x="247" y="412" width="18" height="26" rx="2" fill="#BFD6DF" stroke="#586B74" stroke-width="1"/>
<rect x="271" y="412" width="18" height="26" rx="2" fill="#BFD6DF" stroke="#586B74" stroke-width="1"/>
<rect x="295" y="412" width="18" height="26" rx="2" fill="#BFD6DF" stroke="#586B74" stroke-width="1"/>
<rect x="319" y="412" width="18" height="26" rx="2" fill="#BFD6DF" stroke="#586B74" stroke-width="1"/>
<rect x="343" y="412" width="18" height="26" rx="2" fill="#BFD6DF" stroke="#586B74" stroke-width="1"/>
<rect x="367" y="412" width="18" height="26" rx="2" fill="#BFD6DF" stroke="#586B74" stroke-width="1"/>
<rect x="391" y="412" width="18" height="26" rx="2" fill="#BFD6DF" stroke="#586B74" stroke-width="1"/>
<rect x="415" y="412" width="18" height="26" rx="2" fill="#BFD6DF" stroke="#586B74" stroke-width="1"/>
<rect x="439" y="412" width="18" height="26" rx="2" fill="#BFD6DF" stroke="#586B74" stroke-width="1"/>
<rect x="463" y="412" width="18" height="26" rx="2" fill="#BFD6DF" stroke="#586B74" stroke-width="1"/>
<rect x="487" y="412" width="18" height="26" rx="2" fill="#BFD6DF" stroke="#586B74" stroke-width="1"/>
<rect x="511" y="412" width="18" height="26" rx="2" fill="#BFD6DF" stroke="#586B74" stroke-width="1"/>
<rect x="535" y="412" width="18" height="26" rx="2" fill="#BFD6DF" stroke="#586B74" stroke-width="1"/>
<rect x="559" y="412" width="18" height="26" rx="2" fill="#BFD6DF" stroke="#586B74" stroke-width="1"/>
<rect x="583" y="412" width="18" height="26" rx="2" fill="#BFD6DF" stroke="#586B74" stroke-width="1"/>
<rect x="607" y="412" width="18" height="26" rx="2" fill="#BFD6DF" stroke="#586B74" stroke-width="1"/>
<rect x="631" y="412" width="18" height="26" rx="2" fill="#BFD6DF" stroke="#586B74" stroke-width="1"/>
<rect x="655" y="412" width="18" height="26" rx="2" fill="#BFD6DF" stroke="#586B74" stroke-width="1"/>
<rect x="679" y="412" width="18" height="26" rx="2" fill="#BFD6DF" stroke="#586B74" stroke-width="1"/>
<rect x="703" y="412" width="18" height="26" rx="2" fill="#BFD6DF" stroke="#586B74" stroke-width="1"/>
<rect x="727" y="412" width="18" height="26" rx="2" fill="#BFD6DF" stroke="#586B74" stroke-width="1"/>
<rect x="751" y="412" width="18" height="26" rx="2" fill="#BFD6DF" stroke="#586B74" stroke-width="1"/>
<rect x="775" y="412" width="18" height="26" rx="2" fill="#BFD6DF" stroke="#586B74" stroke-width="1"/>
<rect x="799" y="412" width="18" height="26" rx="2" fill="#BFD6DF" stroke="#586B74" stroke-width="1"/>
<rect x="823" y="412" width="18" height="26" rx="2" fill="#F4EEDC" stroke="#586B74" stroke-width="1"/>
<rect x="847" y="412" width="18" height="26" rx="2" fill="#F4EEDC" stroke="#586B74" stroke-width="1"/>
<polyline points="223,490 877,490" fill="none" stroke="#586B74" stroke-width="1.3" stroke-linejoin="round"/>
<polygon points="877,490 869.0,486.0 869.0,494.0" fill="#586B74"/>
<text x="223" y="514" font-family="Arial,Helvetica,sans-serif" font-size="19" font-weight="normal" fill="#586B74" text-anchor="start">Schematic; not to scale</text>
<text x="877" y="514" font-family="Arial,Helvetica,sans-serif" font-size="20" font-weight="normal" fill="#202A30" text-anchor="end">Time</text>
</svg>