<svg xmlns="http://www.w3.org/2000/svg" width="1120" height="430" viewBox="0 0 1120 430">
<rect width="100%" height="100%" fill="white"/>
<line x1="230" y1="84" x2="1080" y2="84" stroke="#CAD2D8" stroke-width="1.5"/>
<line x1="230" y1="198" x2="1080" y2="198" stroke="#CAD2D8" stroke-width="1.5"/>
<text x="22" y="75" font-family="Helvetica,Arial,sans-serif" font-size="22" fill="#26343D" text-anchor="start" font-weight="bold">Reference</text>
<text x="22" y="102" font-family="Helvetica,Arial,sans-serif" font-size="22" fill="#26343D" text-anchor="start" font-weight="bold">inference</text>
<text x="22" y="187" font-family="Helvetica,Arial,sans-serif" font-size="22" fill="#26343D" text-anchor="start" font-weight="bold">Residual</text>
<text x="22" y="214" font-family="Helvetica,Arial,sans-serif" font-size="22" fill="#26343D" text-anchor="start" font-weight="bold">inference</text>
<text x="22" y="322" font-family="Helvetica,Arial,sans-serif" font-size="22" fill="#26343D" text-anchor="start" font-weight="bold">Applied</text>
<text x="22" y="349" font-family="Helvetica,Arial,sans-serif" font-size="22" fill="#26343D" text-anchor="start" font-weight="bold">corrections</text>
<line x1="460.0" y1="106" x2="460.0" y2="112" stroke="#2479AE" stroke-width="1.5"/>
<line x1="460.0" y1="118" x2="460.0" y2="124" stroke="#2479AE" stroke-width="1.5"/>
<line x1="460.0" y1="130" x2="460.0" y2="136" stroke="#2479AE" stroke-width="1.5"/>
<line x1="460.0" y1="166" x2="460.0" y2="172" stroke="#2479AE" stroke-width="1.5"/>
<line x1="460.0" y1="178" x2="460.0" y2="184" stroke="#2479AE" stroke-width="1.5"/>
<line x1="460.0" y1="190" x2="460.0" y2="196" stroke="#2479AE" stroke-width="1.5"/>
<line x1="460.0" y1="202" x2="460.0" y2="208" stroke="#2479AE" stroke-width="1.5"/>
<line x1="460.0" y1="214" x2="460.0" y2="220" stroke="#2479AE" stroke-width="1.5"/>
<line x1="460.0" y1="226" x2="460.0" y2="232" stroke="#2479AE" stroke-width="1.5"/>
<line x1="460.0" y1="238" x2="460.0" y2="244" stroke="#2479AE" stroke-width="1.5"/>
<line x1="460.0" y1="250" x2="460.0" y2="256" stroke="#2479AE" stroke-width="1.5"/>
<line x1="460.0" y1="262" x2="460.0" y2="268" stroke="#2479AE" stroke-width="1.5"/>
<line x1="460.0" y1="274" x2="460.0" y2="280" stroke="#2479AE" stroke-width="1.5"/>
<line x1="460.0" y1="286" x2="460.0" y2="292" stroke="#2479AE" stroke-width="1.5"/>
<line x1="460.0" y1="298" x2="460.0" y2="304" stroke="#2479AE" stroke-width="1.5"/>
<line x1="460.0" y1="310" x2="460.0" y2="316" stroke="#2479AE" stroke-width="1.5"/>
<line x1="460.0" y1="322" x2="460.0" y2="328" stroke="#2479AE" stroke-width="1.5"/>
<line x1="460.0" y1="334" x2="460.0" y2="340" stroke="#2479AE" stroke-width="1.5"/>
<line x1="460.0" y1="346" x2="460.0" y2="352" stroke="#2479AE" stroke-width="1.5"/>
<rect x="260.0" y="62" width="200.0" height="44" rx="3" fill="#E7F2F8" stroke="#2479AE" stroke-width="1.7"/>
<text x="360.0" y="91" font-family="Helvetica,Arial,sans-serif" font-size="21" fill="#2479AE" text-anchor="middle" font-weight="normal">Query k</text>
<text x="474.0" y="125" font-family="Helvetica,Arial,sans-serif" font-size="21" fill="#2479AE" text-anchor="start" font-weight="normal">Reference k available</text>
<rect x="230" y="176" width="65.0" height="44" rx="3" fill="#EDF0F2" stroke="#687784" stroke-width="1.7"/>
<text x="262.5" y="205" font-family="Helvetica,Arial,sans-serif" font-size="20" fill="#687784" text-anchor="middle" font-weight="normal">q0</text>
<text x="230" y="159" font-family="Helvetica,Arial,sans-serif" font-size="20" fill="#687784" text-anchor="start" font-weight="normal">Binds k−1</text>
<rect x="430" y="176" width="70.0" height="44" rx="3" fill="#EDF0F2" stroke="#687784" stroke-width="1.7"/>
<text x="465.0" y="205" font-family="Helvetica,Arial,sans-serif" font-size="20" fill="#687784" text-anchor="middle" font-weight="normal">q1</text>
<text x="430" y="159" font-family="Helvetica,Arial,sans-serif" font-size="20" fill="#687784" text-anchor="start" font-weight="normal">Binds k−1</text>
<rect x="710.0" y="176" width="70.0" height="44" rx="3" fill="#E7F2F8" stroke="#2479AE" stroke-width="1.7"/>
<text x="745.0" y="205" font-family="Helvetica,Arial,sans-serif" font-size="20" fill="#2479AE" text-anchor="middle" font-weight="normal">q2</text>
<text x="710.0" y="159" font-family="Helvetica,Arial,sans-serif" font-size="20" fill="#2479AE" text-anchor="start" font-weight="normal">Binds k</text>
<line x1="460.0" y1="268" x2="780.0" y2="268" stroke="#687784" stroke-width="1.5"/>
<line x1="460.0" y1="262" x2="460.0" y2="274" stroke="#687784" stroke-width="1.5"/>
<line x1="780.0" y1="262" x2="780.0" y2="274" stroke="#687784" stroke-width="1.5"/>
<text x="620.0" y="254" font-family="Helvetica,Arial,sans-serif" font-size="20" fill="#687784" text-anchor="middle" font-weight="normal">Old binding retained</text>
<rect x="230" y="310" width="550.0" height="48" rx="0" fill="#DEE4E8" stroke="#687784" stroke-width="1.7"/>
<rect x="780.0" y="310" width="290.0" height="48" rx="0" fill="#C6E2F2" stroke="#2479AE" stroke-width="1.7"/>
<line x1="295.0" y1="311" x2="295.0" y2="357" stroke="#A9B4BD" stroke-width="1"/>
<line x1="500.0" y1="311" x2="500.0" y2="357" stroke="#A9B4BD" stroke-width="1"/>
<text x="262.5" y="341" font-family="Helvetica,Arial,sans-serif" font-size="22" fill="#687784" text-anchor="middle" font-weight="normal">…</text>
<text x="397.5" y="341" font-family="Helvetica,Arial,sans-serif" font-size="20" fill="#26343D" text-anchor="middle" font-weight="normal">q0 · k−1</text>
<text x="640.0" y="341" font-family="Helvetica,Arial,sans-serif" font-size="20" fill="#26343D" text-anchor="middle" font-weight="normal">q1 · k−1</text>
<text x="925.0" y="341" font-family="Helvetica,Arial,sans-serif" font-size="20" fill="#2479AE" text-anchor="middle" font-weight="normal">q2 · k</text>
<line x1="780.0" y1="221" x2="780.0" y2="306" stroke="#2479AE" stroke-width="1.5"/>
<polygon points="780.0,306 776.0,298 784.0,298" fill="#2479AE"/>
<text x="794.0" y="291" font-family="Helvetica,Arial,sans-serif" font-size="20" fill="#2479AE" text-anchor="start" font-weight="normal">q2 result available</text>
<line x1="230" y1="400" x2="1080" y2="400" stroke="#26343D" stroke-width="1.5"/>
<polygon points="1080,400 1072,396 1072,404" fill="#26343D"/>
<text x="1080" y="390" font-family="Helvetica,Arial,sans-serif" font-size="19" fill="#26343D" text-anchor="end" font-weight="normal">Time</text>
</svg>